<?xml version="1.0" standalone="no"?>
<!DOCTYPE svg PUBLIC "-//W3C//DTD SVG 20010904//EN"
 "http://www.w3.org/TR/2001/REC-SVG-20010904/DTD/svg10.dtd">
<svg version="1.0" xmlns="http://www.w3.org/2000/svg"
 width="300.000000pt" height="132.000000pt" viewBox="0 0 300.000000 132.000000"
 preserveAspectRatio="xMidYMid meet">
<metadata>
Created by potrace 1.10, written by Peter Selinger 2001-2011
</metadata>
<g transform="translate(0.000000,132.000000) scale(0.100000,-0.100000)"
fill="#C6A87D" stroke="none">
<path d="M352 1038 l2 -113 3 108 4 107 1169 0 1170 0 0 -180 c0 -113 4 -180
10 -180 6 0 10 68 10 185 l0 185 -1185 0 -1185 0 2 -112z"/>
<path d="M325 849 c-40 -35 -69 -84 -60 -99 4 -6 11 -8 16 -4 5 3 7 9 4 13 -7
12 53 91 69 91 17 0 7 -51 -54 -265 -22 -78 -40 -146 -40 -153 0 -22 17 -4 25
25 3 16 13 52 21 80 l15 53 75 -50 c40 -28 84 -64 96 -80 22 -30 38 -39 38
-20 0 21 -72 87 -134 124 l-65 38 37 25 c45 31 188 151 221 187 14 14 21 29
18 32 -4 4 -39 -24 -79 -62 -101 -95 -202 -172 -195 -148 44 146 59 244 37
244 -5 0 -25 -14 -45 -31z"/>
<path d="M1149 795 l-11 -45 -60 0 c-41 0 -57 -3 -52 -11 4 -7 24 -9 55 -6 27
3 49 3 49 -1 0 -4 -14 -56 -30 -117 -32 -119 -38 -169 -17 -162 6 2 11 15 9
29 -2 13 6 58 17 99 11 41 25 93 31 117 6 25 17 42 25 42 19 0 19 4 -6 -92
-11 -44 -18 -83 -15 -85 3 -3 19 6 36 21 34 28 50 27 50 -5 0 -22 29 -26 63
-8 16 9 22 9 25 0 9 -27 132 5 132 36 0 9 -9 7 -32 -7 -18 -11 -46 -19 -63
-19 -21 1 -24 3 -10 6 30 7 41 21 27 35 -8 8 -21 5 -51 -15 -49 -33 -63 -34
-76 -4 -11 25 -39 25 -67 0 -21 -19 -21 -16 -8 23 5 16 14 47 19 69 l10 40 82
-4 c51 -2 85 1 92 8 8 8 -12 11 -75 11 -82 0 -87 1 -91 23 l-4 22 -8 -22 c-4
-13 -14 -23 -22 -23 -16 0 -14 29 2 73 4 10 3 17 -4 17 -6 0 -16 -20 -22 -45z"/>
<path d="M2323 798 l-9 -43 -57 -3 c-32 -2 -57 -8 -57 -14 0 -7 18 -9 50 -6
58 6 59 3 35 -76 -15 -50 -37 -75 -67 -76 -13 0 -18 8 -18 29 0 17 5 33 10 36
6 4 8 11 4 16 -8 14 -24 1 -24 -21 0 -22 -45 -60 -71 -60 -12 0 -19 7 -19 19
0 31 -19 35 -51 12 -16 -12 -29 -19 -29 -16 0 3 11 47 25 97 15 50 24 93 20
96 -9 9 -14 -2 -38 -92 -18 -70 -28 -91 -48 -102 -31 -17 -82 -18 -76 -1 2 6
12 12 22 12 10 0 20 6 23 13 5 17 -29 15 -52 -3 -27 -20 -66 -19 -66 1 0 21
-42 12 -78 -17 -14 -10 -34 -19 -44 -19 -17 0 -19 5 -14 25 6 23 4 25 -19 21
-37 -7 -45 -14 -45 -42 0 -26 18 -32 38 -12 9 9 12 9 12 0 0 -15 34 -16 61 -2
13 7 19 7 19 0 0 -19 20 -10 32 15 11 23 12 24 29 9 12 -11 27 -14 43 -10 16
4 26 1 30 -9 7 -20 55 -19 84 1 20 14 22 14 22 0 0 -22 7 -20 43 10 l32 27 5
-24 c7 -30 42 -37 75 -15 20 13 24 13 29 1 7 -18 47 -20 65 -2 11 10 12 5 6
-28 -12 -61 -11 -88 3 -93 9 -3 11 3 7 20 -3 12 9 76 27 141 l33 119 133 1
c109 2 131 0 127 -12 -3 -7 -10 -33 -16 -58 -7 -25 -22 -52 -37 -63 -30 -24
-82 -27 -82 -4 0 11 6 14 20 9 14 -5 20 -2 20 9 0 23 -24 20 -66 -9 -22 -15
-50 -25 -68 -24 -21 1 -24 3 -11 6 29 7 41 21 28 34 -17 17 -53 -7 -53 -36 0
-21 5 -25 31 -25 17 0 40 5 51 11 14 8 23 8 31 0 16 -16 53 -14 89 5 27 14 30
14 25 1 -28 -73 -31 -127 -6 -127 6 0 8 7 5 16 -5 14 17 115 52 238 l8 30 111
-3 c71 -2 113 1 118 8 4 8 -30 11 -110 11 -106 0 -116 2 -111 18 15 49 17 72
9 72 -6 0 -14 -19 -19 -42 l-9 -43 -133 -3 c-124 -2 -133 -1 -128 15 15 52 17
73 8 73 -6 0 -15 -19 -19 -42z"/>
<path d="M599 660 c-1 -5 -2 -14 -3 -19 0 -5 -4 -13 -8 -17 -14 -14 -8 -55 8
-61 10 -3 30 -2 45 4 20 8 29 8 32 -1 2 -6 16 2 33 19 l29 30 3 -27 c4 -35 12
-35 43 -2 l24 26 5 -24 c3 -13 14 -24 25 -26 24 -3 96 39 78 45 -7 3 -23 -3
-35 -11 -28 -20 -48 -21 -48 -2 0 7 -6 19 -14 25 -11 10 -19 7 -35 -10 -17
-18 -21 -20 -21 -6 0 25 -19 30 -45 13 -22 -14 -25 -14 -25 -2 0 11 -7 8 -25
-9 -13 -14 -34 -25 -46 -25 -18 0 -20 5 -17 28 3 15 9 35 13 45 4 10 3 17 -4
17 -6 0 -12 -4 -12 -10z"/>
<path d="M2710 246 l0 -176 -1175 0 -1174 0 -4 133 -3 132 -2 -142 -2 -143
1184 0 1184 0 6 48 c8 75 5 311 -5 318 -5 3 -9 -68 -9 -170z"/>
<path d="M975 315 c0 -19 5 -25 23 -25 17 0 22 6 22 25 0 19 -5 25 -22 25 -18
0 -23 -6 -23 -25z"/>
<path d="M1060 315 c0 -20 5 -25 23 -24 19 1 19 2 3 6 -15 4 -16 7 -5 14 12 7
12 9 -1 10 -10 0 -8 3 5 9 19 8 19 9 -2 9 -18 1 -23 -5 -23 -24z"/>
<path d="M1130 325 c0 -8 6 -15 13 -15 8 0 7 -4 -3 -10 -13 -8 -12 -10 3 -10
9 0 17 7 17 15 0 8 -6 15 -12 15 -9 0 -8 4 2 10 13 8 12 10 -2 10 -10 0 -18
-7 -18 -15z"/>
<path d="M1244 325 c-8 -20 4 -35 27 -35 12 0 19 7 18 18 0 10 -3 12 -6 5 -7
-18 -23 -16 -23 1 0 8 8 17 18 19 12 4 11 5 -6 6 -12 0 -25 -6 -28 -14z"/>
<path d="M1325 315 c0 -14 3 -25 8 -25 4 0 7 5 7 11 0 8 5 8 15 -1 13 -11 15
-8 15 16 0 20 -3 25 -9 15 -6 -9 -11 -10 -15 -2 -12 19 -21 12 -21 -14z"/>
<path d="M1464 324 c3 -8 2 -13 -3 -10 -5 3 -11 0 -14 -8 -4 -9 3 -13 19 -13
18 0 24 4 20 14 -3 8 -6 19 -6 24 0 5 -5 9 -11 9 -6 0 -8 -7 -5 -16z"/>
<path d="M1520 315 c0 -14 4 -25 10 -25 5 0 7 8 4 18 -5 16 -5 16 9 0 20 -25
27 -22 27 7 0 14 -5 25 -11 25 -5 0 -7 -6 -3 -12 6 -10 4 -10 -7 0 -20 18 -29
15 -29 -13z"/>
<path d="M1600 314 c0 -21 4 -25 23 -22 14 2 23 11 25 26 3 18 -1 22 -22 22
-21 0 -26 -5 -26 -26z"/>
<path d="M1725 315 c0 -16 6 -25 16 -25 22 0 28 8 22 31 -8 29 -38 24 -38 -6z"/>
<path d="M1800 315 c0 -18 5 -25 19 -25 12 0 20 9 23 25 3 14 1 25 -3 25 -5 0
-9 -9 -9 -20 0 -11 -5 -20 -11 -20 -6 0 -9 9 -6 20 3 11 1 20 -4 20 -5 0 -9
-11 -9 -25z"/>
<path d="M1930 315 c0 -18 5 -25 20 -25 11 0 20 4 20 10 0 5 -7 7 -16 3 -13
-5 -15 -2 -9 15 4 13 2 22 -4 22 -6 0 -11 -11 -11 -25z"/>
<path d="M2000 315 c0 -22 4 -26 23 -23 14 2 22 10 22 23 0 13 -8 21 -22 23
-19 3 -23 -1 -23 -23z"/>
</g>
</svg>
